# MagicaVoxel @ Ephtracy

# group
o 

# material
mtllib Grees.mtl
usemtl palette

# normals
vn -1 0 0
vn 1 0 0
vn 0 0 1
vn 0 0 -1
vn 0 -1 0
vn 0 1 0

# texcoords
vt 0.00195312 0.5
vt 0.0214844 0.5
vt 0.720703 0.5
vt 0.748047 0.5
vt 0.865234 0.5

# verts
v -2 0 2
v -2 0 -2
v -2 2.3 1.4
v -2 2.3 1.1
v -2 2.3 0.8
v -2 2.3 0.5
v -2 2.3 0.3
v -2 2.3 -2.38419e-07
v -2 2.3 -0.2
v -2 2.3 -0.8
v -2 2.3 -0.9
v -2 2.3 -1.4
v -2 2.3 -1.6
v -2 2.3 -2
v -2 2.9 2
v -2 2.9 1.4
v -2 3.4 -0.1
v -2 3.4 -0.2
v -2 3.6 0.5
v -2 3.6 0.4
v -2 3.6 -2.38419e-07
v -2 3.6 -0.1
v -2 3.6 -0.8
v -2 3.6 -0.9
v -2 3.7 1.1
v -2 3.7 0.8
v -2 3.7 0.4
v -2 3.7 0.3
v -2 3.7 -1.4
v -2 3.7 -1.6
v -2 4 2
v -2 4 -2
v 2 0 2
v 2 0 -2
v 2 2.3 2
v 2 2.3 1.4
v 2 2.3 1
v 2 2.3 0.7
v 2 2.3 0.5
v 2 2.3 0.2
v 2 2.3 -0.2
v 2 2.3 -0.5
v 2 2.3 -0.9
v 2 2.3 -1
v 2 2.3 -1.2
v 2 2.3 -1.5
v 2 2.3 -1.6
v 2 2.3 -2
v 2 2.7 -0.7
v 2 2.7 -0.9
v 2 2.8 -1.5
v 2 2.8 -1.6
v 2 3 0.7
v 2 3 0.6
v 2 3.1 1.4
v 2 3.1 1.2
v 2 3.2 -0.6
v 2 3.2 -0.7
v 2 3.3 0.6
v 2 3.3 0.5
v 2 3.3 0.2
v 2 3.3 -0.2
v 2 3.4 -0.5
v 2 3.4 -0.6
v 2 3.5 1.2
v 2 3.5 1
v 2 3.7 -1
v 2 3.7 -1.2
v 2 4 2
v 2 4 -2
v -2 0 2
v -2 2.9 2
v -2 4 2
v -1.5 2.9 2
v -1.5 3.3 2
v -1.2 2.9 2
v -1.2 3.3 2
v -0.7 2.3 2
v -0.7 2.9 2
v -0.0999999 2.3 2
v -0.0999999 3.4 2
v 0.1 2.3 2
v 0.1 3.4 2
v 0.8 2.3 2
v 0.8 2.7 2
v 1 2.3 2
v 1 2.7 2
v 1.4 2.3 2
v 1.4 3.2 2
v 1.7 2.3 2
v 1.7 3.2 2
v 2 0 2
v 2 2.3 2
v 2 4 2
v -2 0 -2
v -2 2.3 -2
v -2 4 -2
v -1.4 2.3 -2
v -1.4 3.1 -2
v -0.8 3.1 -2
v -0.8 3.9 -2
v -0.7 2.3 -2
v -0.7 3.9 -2
v -0.3 2.3 -2
v -0.3 3.9 -2
v -0.2 2.3 -2
v -0.2 3.9 -2
v 0.2 2.3 -2
v 0.2 3.7 -2
v 0.3 3.6 -2
v 0.3 3.7 -2
v 0.4 2.3 -2
v 0.4 3.6 -2
v 0.7 2.3 -2
v 0.7 3.5 -2
v 1.1 2.3 -2
v 1.1 3.5 -2
v 1.5 2.3 -2
v 1.5 3.5 -2
v 1.6 3.5 -2
v 1.6 3.8 -2
v 1.7 2.3 -2
v 1.7 3.8 -2
v 2 0 -2
v 2 2.3 -2
v 2 4 -2
v -2 0 2
v 2 0 2
v -2 0 -2
v 2 0 -2
v -2 4 2
v 2 4 2
v -1.3 4 1.4
v -0.7 4 1.4
v -1.3 4 0.8
v -0.7 4 0.8
v 1 4 0.5
v 1.5 4 0.5
v 1 4 -0.1
v 1.5 4 -0.1
v -0.6 4 -0.4
v -0.4 4 -0.4
v -0.7 4 -0.5
v -0.6 4 -0.5
v -0.4 4 -0.5
v -0.3 4 -0.5
v -0.8 4 -0.6
v -0.7 4 -0.6
v -0.6 4 -0.6
v -0.4 4 -0.6
v -0.3 4 -0.6
v -0.2 4 -0.6
v -0.8 4 -0.8
v -0.7 4 -0.8
v -0.6 4 -0.8
v -0.4 4 -0.8
v -0.3 4 -0.8
v -0.2 4 -0.8
v -0.7 4 -0.9
v -0.6 4 -0.9
v -0.4 4 -0.9
v -0.3 4 -0.9
v 0.6 4 -0.9
v 1.2 4 -0.9
v -0.6 4 -1
v -0.4 4 -1
v 0.6 4 -1.4
v 1.2 4 -1.4
v -2 4 -2
v 2 4 -2

# faces
f 3/5/1 2/5/1 1/5/1
f 4/5/1 2/5/1 3/5/1
f 5/5/1 2/5/1 4/5/1
f 6/5/1 2/5/1 5/5/1
f 7/5/1 2/5/1 6/5/1
f 8/5/1 2/5/1 7/5/1
f 9/5/1 2/5/1 8/5/1
f 10/5/1 2/5/1 9/5/1
f 11/5/1 2/5/1 10/5/1
f 12/5/1 2/5/1 11/5/1
f 13/5/1 2/5/1 12/5/1
f 14/5/1 2/5/1 13/5/1
f 15/5/1 3/5/1 1/5/1
f 16/3/1 4/3/1 3/3/1
f 16/5/1 3/5/1 15/5/1
f 17/5/1 9/5/1 8/5/1
f 18/3/1 10/3/1 9/3/1
f 18/5/1 9/5/1 17/5/1
f 19/3/1 6/3/1 5/3/1
f 19/5/1 7/5/1 6/5/1
f 20/5/1 7/5/1 19/5/1
f 21/3/1 8/3/1 7/3/1
f 21/5/1 17/5/1 8/5/1
f 22/3/1 18/3/1 17/3/1
f 22/5/1 17/5/1 21/5/1
f 23/3/1 10/3/1 18/3/1
f 23/3/1 18/3/1 22/3/1
f 23/5/1 11/5/1 10/5/1
f 24/3/1 12/3/1 11/3/1
f 24/5/1 11/5/1 23/5/1
f 25/5/1 5/5/1 4/5/1
f 25/3/1 4/3/1 16/3/1
f 25/3/1 16/3/1 15/3/1
f 26/3/1 20/3/1 19/3/1
f 26/5/1 5/5/1 25/5/1
f 26/3/1 19/3/1 5/3/1
f 27/5/1 7/5/1 20/5/1
f 27/3/1 20/3/1 26/3/1
f 28/3/1 22/3/1 21/3/1
f 28/5/1 7/5/1 27/5/1
f 28/3/1 21/3/1 7/3/1
f 28/3/1 24/3/1 23/3/1
f 28/3/1 23/3/1 22/3/1
f 29/3/1 12/3/1 24/3/1
f 29/3/1 24/3/1 28/3/1
f 29/5/1 13/5/1 12/5/1
f 30/3/1 14/3/1 13/3/1
f 30/5/1 13/5/1 29/5/1
f 31/3/1 28/3/1 27/3/1
f 31/3/1 27/3/1 26/3/1
f 31/3/1 30/3/1 29/3/1
f 31/3/1 29/3/1 28/3/1
f 31/3/1 26/3/1 25/3/1
f 31/3/1 25/3/1 15/3/1
f 32/3/1 14/3/1 30/3/1
f 32/3/1 30/3/1 31/3/1
f 33/5/2 34/5/2 35/5/2
f 35/5/2 34/5/2 36/5/2
f 36/5/2 34/5/2 37/5/2
f 37/5/2 34/5/2 38/5/2
f 38/5/2 34/5/2 39/5/2
f 39/5/2 34/5/2 40/5/2
f 40/5/2 34/5/2 41/5/2
f 41/5/2 34/5/2 42/5/2
f 42/5/2 34/5/2 43/5/2
f 43/5/2 34/5/2 44/5/2
f 44/5/2 34/5/2 45/5/2
f 45/5/2 34/5/2 46/5/2
f 46/5/2 34/5/2 47/5/2
f 47/5/2 34/5/2 48/5/2
f 42/5/2 43/5/2 49/5/2
f 43/3/2 44/3/2 50/3/2
f 49/5/2 43/5/2 50/5/2
f 45/3/2 46/3/2 51/3/2
f 46/5/2 47/5/2 51/5/2
f 47/3/2 48/3/2 52/3/2
f 51/5/2 47/5/2 52/5/2
f 37/3/2 38/3/2 53/3/2
f 38/5/2 39/5/2 53/5/2
f 53/5/2 39/5/2 54/5/2
f 35/3/2 36/3/2 55/3/2
f 36/5/2 37/5/2 55/5/2
f 55/5/2 37/5/2 56/5/2
f 42/5/2 49/5/2 57/5/2
f 49/3/2 50/3/2 58/3/2
f 57/5/2 49/5/2 58/5/2
f 54/5/2 39/5/2 59/5/2
f 53/3/2 54/3/2 59/3/2
f 39/3/2 40/3/2 60/3/2
f 59/5/2 39/5/2 60/5/2
f 40/5/2 41/5/2 61/5/2
f 60/3/2 40/3/2 61/3/2
f 41/3/2 42/3/2 62/3/2
f 61/5/2 41/5/2 62/5/2
f 59/3/2 60/3/2 63/3/2
f 62/3/2 42/3/2 63/3/2
f 61/3/2 62/3/2 63/3/2
f 60/3/2 61/3/2 63/3/2
f 42/5/2 57/5/2 63/5/2
f 57/3/2 58/3/2 64/3/2
f 63/5/2 57/5/2 64/5/2
f 55/3/2 56/3/2 65/3/2
f 56/5/2 37/5/2 65/5/2
f 59/3/2 63/3/2 66/3/2
f 65/5/2 37/5/2 66/5/2
f 53/3/2 59/3/2 66/3/2
f 63/3/2 64/3/2 66/3/2
f 37/3/2 53/3/2 66/3/2
f 58/3/2 50/3/2 67/3/2
f 66/3/2 64/3/2 67/3/2
f 65/3/2 66/3/2 67/3/2
f 44/5/2 45/5/2 67/5/2
f 50/3/2 44/3/2 67/3/2
f 64/3/2 58/3/2 67/3/2
f 51/3/2 52/3/2 68/3/2
f 67/5/2 45/5/2 68/5/2
f 45/3/2 51/3/2 68/3/2
f 55/3/2 65/3/2 69/3/2
f 65/3/2 67/3/2 69/3/2
f 67/3/2 68/3/2 69/3/2
f 35/3/2 55/3/2 69/3/2
f 68/3/2 52/3/2 70/3/2
f 69/3/2 68/3/2 70/3/2
f 52/3/2 48/3/2 70/3/2
f 74/5/3 72/5/3 71/5/3
f 74/3/3 73/3/3 72/3/3
f 75/3/3 73/3/3 74/3/3
f 76/5/3 74/5/3 71/5/3
f 76/5/3 75/5/3 74/5/3
f 77/3/3 73/3/3 75/3/3
f 77/5/3 75/5/3 76/5/3
f 78/5/3 76/5/3 71/5/3
f 79/3/3 77/3/3 76/3/3
f 79/5/3 76/5/3 78/5/3
f 80/5/3 78/5/3 71/5/3
f 80/3/3 79/3/3 78/3/3
f 81/3/3 73/3/3 77/3/3
f 81/3/3 79/3/3 80/3/3
f 81/3/3 77/3/3 79/3/3
f 82/5/3 80/5/3 71/5/3
f 82/5/3 81/5/3 80/5/3
f 83/3/3 73/3/3 81/3/3
f 83/5/3 81/5/3 82/5/3
f 84/5/3 82/5/3 71/5/3
f 84/3/3 83/3/3 82/3/3
f 85/3/3 83/3/3 84/3/3
f 86/5/3 84/5/3 71/5/3
f 86/5/3 85/5/3 84/5/3
f 87/3/3 83/3/3 85/3/3
f 87/5/3 85/5/3 86/5/3
f 88/5/3 86/5/3 71/5/3
f 88/3/3 87/3/3 86/3/3
f 89/3/3 83/3/3 87/3/3
f 89/3/3 87/3/3 88/3/3
f 90/5/3 88/5/3 71/5/3
f 90/5/3 89/5/3 88/5/3
f 91/3/3 83/3/3 89/3/3
f 91/5/3 89/5/3 90/5/3
f 92/5/3 90/5/3 71/5/3
f 93/3/3 91/3/3 90/3/3
f 93/5/3 90/5/3 92/5/3
f 94/3/3 73/3/3 83/3/3
f 94/3/3 91/3/3 93/3/3
f 94/3/3 83/3/3 91/3/3
f 95/5/4 96/5/4 98/5/4
f 96/3/4 97/3/4 98/3/4
f 98/3/4 97/3/4 99/3/4
f 98/5/4 99/5/4 100/5/4
f 99/3/4 97/3/4 100/3/4
f 100/3/4 97/3/4 101/3/4
f 95/5/4 98/5/4 102/5/4
f 98/5/4 100/5/4 102/5/4
f 100/5/4 101/5/4 102/5/4
f 101/3/4 97/3/4 103/3/4
f 102/5/4 101/5/4 103/5/4
f 95/5/4 102/5/4 104/5/4
f 102/3/4 103/3/4 104/3/4
f 103/3/4 97/3/4 105/3/4
f 104/3/4 103/3/4 105/3/4
f 95/5/4 104/5/4 106/5/4
f 104/5/4 105/5/4 106/5/4
f 105/3/4 97/3/4 107/3/4
f 106/5/4 105/5/4 107/5/4
f 95/5/4 106/5/4 108/5/4
f 106/3/4 107/3/4 108/3/4
f 108/3/4 107/3/4 109/3/4
f 108/5/4 109/5/4 110/5/4
f 109/3/4 107/3/4 111/3/4
f 110/5/4 109/5/4 111/5/4
f 95/5/4 108/5/4 112/5/4
f 108/5/4 110/5/4 112/5/4
f 110/3/4 111/3/4 113/3/4
f 112/5/4 110/5/4 113/5/4
f 95/5/4 112/5/4 114/5/4
f 112/3/4 113/3/4 114/3/4
f 114/3/4 113/3/4 115/3/4
f 95/5/4 114/5/4 116/5/4
f 114/5/4 115/5/4 116/5/4
f 115/3/4 113/3/4 117/3/4
f 116/5/4 115/5/4 117/5/4
f 95/5/4 116/5/4 118/5/4
f 116/3/4 117/3/4 118/3/4
f 117/3/4 113/3/4 119/3/4
f 118/3/4 117/3/4 119/3/4
f 118/5/4 119/5/4 120/5/4
f 119/3/4 113/3/4 120/3/4
f 111/3/4 107/3/4 121/3/4
f 120/3/4 113/3/4 121/3/4
f 113/3/4 111/3/4 121/3/4
f 118/5/4 120/5/4 122/5/4
f 95/5/4 118/5/4 122/5/4
f 120/5/4 121/5/4 122/5/4
f 121/3/4 107/3/4 123/3/4
f 122/5/4 121/5/4 123/5/4
f 95/5/4 122/5/4 124/5/4
f 122/3/4 123/3/4 125/3/4
f 124/5/4 122/5/4 125/5/4
f 107/3/4 97/3/4 126/3/4
f 125/3/4 123/3/4 126/3/4
f 123/3/4 107/3/4 126/3/4
f 129/5/5 128/5/5 127/5/5
f 130/5/5 128/5/5 129/5/5
f 131/3/6 132/3/6 133/3/6
f 133/3/6 132/3/6 134/3/6
f 131/3/6 133/3/6 135/3/6
f 133/4/6 134/4/6 135/4/6
f 134/3/6 132/3/6 136/3/6
f 135/4/6 134/4/6 136/4/6
f 135/3/6 136/3/6 137/3/6
f 136/3/6 132/3/6 137/3/6
f 137/3/6 132/3/6 138/3/6
f 135/3/6 137/3/6 139/3/6
f 137/4/6 138/4/6 139/4/6
f 138/3/6 132/3/6 140/3/6
f 139/4/6 138/4/6 140/4/6
f 135/3/6 139/3/6 141/3/6
f 139/3/6 140/3/6 141/3/6
f 141/3/6 140/3/6 142/3/6
f 135/3/6 141/3/6 143/3/6
f 141/1/6 142/1/6 144/1/6
f 143/3/6 141/3/6 144/3/6
f 142/3/6 140/3/6 145/3/6
f 144/1/6 142/1/6 145/1/6
f 145/3/6 140/3/6 146/3/6
f 135/3/6 143/3/6 147/3/6
f 143/1/6 144/1/6 148/1/6
f 147/3/6 143/3/6 148/3/6
f 144/1/6 145/1/6 148/1/6
f 145/1/6 146/1/6 148/1/6
f 148/1/6 146/1/6 149/1/6
f 149/1/6 146/1/6 150/1/6
f 146/3/6 140/3/6 151/3/6
f 150/1/6 146/1/6 151/1/6
f 151/3/6 140/3/6 152/3/6
f 135/3/6 147/3/6 153/3/6
f 147/1/6 148/1/6 153/1/6
f 148/1/6 149/1/6 153/1/6
f 153/1/6 149/1/6 154/1/6
f 149/2/6 150/2/6 155/2/6
f 154/1/6 149/1/6 155/1/6
f 151/1/6 152/1/6 156/1/6
f 155/2/6 150/2/6 156/2/6
f 150/1/6 151/1/6 156/1/6
f 156/1/6 152/1/6 157/1/6
f 152/3/6 140/3/6 158/3/6
f 157/1/6 152/1/6 158/1/6
f 156/1/6 157/1/6 159/1/6
f 153/3/6 154/3/6 159/3/6
f 154/1/6 155/1/6 159/1/6
f 155/1/6 156/1/6 159/1/6
f 159/1/6 157/1/6 160/1/6
f 160/1/6 157/1/6 161/1/6
f 157/3/6 158/3/6 162/3/6
f 161/1/6 157/1/6 162/1/6
f 158/3/6 140/3/6 163/3/6
f 162/3/6 158/3/6 163/3/6
f 163/3/6 140/3/6 164/3/6
f 160/1/6 161/1/6 165/1/6
f 159/3/6 160/3/6 165/3/6
f 161/3/6 162/3/6 166/3/6
f 165/1/6 161/1/6 166/1/6
f 162/3/6 163/3/6 166/3/6
f 163/4/6 164/4/6 167/4/6
f 166/3/6 163/3/6 167/3/6
f 165/3/6 166/3/6 167/3/6
f 164/3/6 140/3/6 168/3/6
f 167/4/6 164/4/6 168/4/6
f 131/3/6 135/3/6 169/3/6
f 159/3/6 165/3/6 169/3/6
f 167/3/6 168/3/6 169/3/6
f 153/3/6 159/3/6 169/3/6
f 135/3/6 153/3/6 169/3/6
f 165/3/6 167/3/6 169/3/6
f 168/3/6 140/3/6 170/3/6
f 169/3/6 168/3/6 170/3/6
f 140/3/6 132/3/6 170/3/6
