# MagicaVoxel @ Ephtracy

# group
o 

# material
mtllib missle.mtl
usemtl palette

# normals
vn -1 0 0
vn 1 0 0
vn 0 0 1
vn 0 0 -1
vn 0 -1 0
vn 0 1 0

# texcoords
vt 0.775391 0.5
vt 0.779297 0.5
vt 0.841797 0.5
vt 0.994141 0.5

# verts
v -0.2 1.2 -1.3
v -0.2 1.2 -1.5
v -0.2 1.4 -1.3
v -0.2 1.4 -1.5
v 5.96046e-08 1.2 -0.8
v 5.96046e-08 1.2 -1.3
v 5.96046e-08 1.2 -1.5
v 5.96046e-08 1.2 -1.9
v 5.96046e-08 1.2 -2
v 5.96046e-08 1.4 -0.8
v 5.96046e-08 1.4 -1.3
v 5.96046e-08 1.4 -1.5
v 5.96046e-08 1.4 -1.9
v 5.96046e-08 1.4 -2
v 0.2 1 -0.8
v 0.2 1 -1.9
v 0.2 1 -2
v 0.2 1.2 -0.8
v 0.2 1.2 -1.9
v 0.2 1.2 -2
v 0.2 1.4 -0.8
v 0.2 1.4 -1.7
v 0.2 1.4 -1.8
v 0.2 1.4 -1.9
v 0.2 1.4 -2
v 0.2 1.6 -0.8
v 0.2 1.6 -1.9
v 0.2 1.6 -2
v 0.4 1.2 -1.4
v 0.4 1.2 -1.5
v 0.4 1.2 -1.6
v 0.4 1.3 -1
v 0.4 1.3 -1.1
v 0.4 1.3 -1.4
v 0.4 1.3 -1.5
v 0.4 1.3 -1.6
v 0.4 1.4 -1
v 0.4 1.4 -1.1
v 0.4 1.4 -1.2
v 0.4 1.4 -1.3
v 0.4 1.4 -1.5
v 0.4 1.4 -1.7
v 0.4 1.5 -1.1
v 0.4 1.5 -1.3
v 0.4 1.5 -1.5
v 0.4 1.5 -1.7
v 0.5 1.2 -0.8
v 0.5 1.2 -0.9
v 0.5 1.3 -0.8
v 0.5 1.3 -0.9
v 0.5 1.3 -1.4
v 0.5 1.3 -1.5
v 0.5 1.3 -1.7
v 0.5 1.3 -1.8
v 0.5 1.4 -1.4
v 0.5 1.4 -1.8
v 0.6 1.2 -1.3
v 0.6 1.2 -1.4
v 0.6 1.2 -1.5
v 0.6 1.2 -1.8
v 0.6 1.3 -1.3
v 0.6 1.3 -1.4
v 0.6 1.3 -1.5
v 0.6 1.3 -1.8
v 0.1 1.3 -1.7
v 0.1 1.3 -1.8
v 0.1 1.4 -1.7
v 0.1 1.4 -1.8
v 0.3 1.2 -1.4
v 0.3 1.2 -1.6
v 0.3 1.2 -1.7
v 0.3 1.2 -1.8
v 0.3 1.3 -1
v 0.3 1.3 -1.1
v 0.3 1.3 -1.4
v 0.3 1.3 -1.5
v 0.3 1.3 -1.6
v 0.3 1.3 -1.7
v 0.3 1.3 -1.8
v 0.3 1.4 -1
v 0.3 1.4 -1.1
v 0.3 1.4 -1.2
v 0.3 1.4 -1.3
v 0.3 1.4 -1.4
v 0.3 1.4 -1.5
v 0.3 1.4 -1.7
v 0.3 1.5 -1.1
v 0.3 1.5 -1.3
v 0.3 1.5 -1.5
v 0.3 1.5 -1.7
v 0.4 1.2 -0.8
v 0.4 1.2 -0.9
v 0.4 1.3 -0.8
v 0.4 1.3 -0.9
v 0.5 1 -0.8
v 0.5 1 -1.9
v 0.5 1 -2
v 0.5 1.2 -0.8
v 0.5 1.2 -1.3
v 0.5 1.2 -1.4
v 0.5 1.2 -1.5
v 0.5 1.2 -1.7
v 0.5 1.2 -1.8
v 0.5 1.2 -1.9
v 0.5 1.2 -2
v 0.5 1.3 -1.3
v 0.5 1.3 -1.4
v 0.5 1.3 -1.5
v 0.5 1.3 -1.7
v 0.5 1.4 -0.8
v 0.5 1.4 -1.9
v 0.5 1.4 -2
v 0.5 1.6 -0.8
v 0.5 1.6 -1.9
v 0.5 1.6 -2
v 0.7 1.2 -0.8
v 0.7 1.2 -1.3
v 0.7 1.2 -1.5
v 0.7 1.2 -1.9
v 0.7 1.2 -2
v 0.7 1.4 -0.8
v 0.7 1.4 -1.3
v 0.7 1.4 -1.5
v 0.7 1.4 -1.9
v 0.7 1.4 -2
v 0.9 1.2 -1.3
v 0.9 1.2 -1.5
v 0.9 1.4 -1.3
v 0.9 1.4 -1.5
v 5.96046e-08 1.2 -0.8
v 5.96046e-08 1.4 -0.8
v 0.2 1 -0.8
v 0.2 1.2 -0.8
v 0.2 1.4 -0.8
v 0.2 1.6 -0.8
v 0.4 1.2 -0.8
v 0.4 1.3 -0.8
v 0.5 1 -0.8
v 0.5 1.2 -0.8
v 0.5 1.3 -0.8
v 0.5 1.4 -0.8
v 0.5 1.6 -0.8
v 0.7 1.2 -0.8
v 0.7 1.4 -0.8
v 0.4 1.2 -0.9
v 0.4 1.3 -0.9
v 0.5 1.2 -0.9
v 0.5 1.3 -0.9
v 0.3 1.3 -1.1
v 0.3 1.4 -1.1
v 0.4 1.3 -1.1
v 0.4 1.4 -1.1
v -0.2 1.2 -1.3
v -0.2 1.4 -1.3
v 5.96046e-08 1.2 -1.3
v 5.96046e-08 1.4 -1.3
v 0.3 1.4 -1.3
v 0.3 1.5 -1.3
v 0.4 1.4 -1.3
v 0.4 1.5 -1.3
v 0.7 1.2 -1.3
v 0.7 1.4 -1.3
v 0.9 1.2 -1.3
v 0.9 1.4 -1.3
v 0.5 1.2 -1.4
v 0.5 1.3 -1.4
v 0.6 1.2 -1.4
v 0.6 1.3 -1.4
v 0.3 1.2 -1.6
v 0.3 1.3 -1.6
v 0.4 1.2 -1.6
v 0.4 1.3 -1.6
v 0.3 1.4 -1.7
v 0.3 1.5 -1.7
v 0.4 1.4 -1.7
v 0.4 1.5 -1.7
v 0.1 1.3 -1.8
v 0.1 1.4 -1.8
v 0.2 1.4 -1.8
v 0.3 1.2 -1.8
v 0.3 1.3 -1.8
v 0.5 1.2 -1.8
v 0.5 1.3 -1.8
v 0.5 1.4 -1.8
v 0.6 1.2 -1.8
v 0.6 1.3 -1.8
v 0.3 1.3 -1
v 0.3 1.4 -1
v 0.4 1.3 -1
v 0.4 1.4 -1
v 0.3 1.4 -1.1
v 0.3 1.5 -1.1
v 0.4 1.4 -1.1
v 0.4 1.5 -1.1
v 0.5 1.2 -1.3
v 0.5 1.3 -1.3
v 0.6 1.2 -1.3
v 0.6 1.3 -1.3
v 0.3 1.2 -1.4
v 0.3 1.3 -1.4
v 0.3 1.4 -1.4
v 0.4 1.2 -1.4
v 0.4 1.3 -1.4
v 0.5 1.3 -1.4
v 0.5 1.4 -1.4
v -0.2 1.2 -1.5
v -0.2 1.4 -1.5
v 5.96046e-08 1.2 -1.5
v 5.96046e-08 1.4 -1.5
v 0.3 1.4 -1.5
v 0.3 1.5 -1.5
v 0.4 1.4 -1.5
v 0.4 1.5 -1.5
v 0.5 1.2 -1.5
v 0.5 1.3 -1.5
v 0.6 1.2 -1.5
v 0.6 1.3 -1.5
v 0.7 1.2 -1.5
v 0.7 1.4 -1.5
v 0.9 1.2 -1.5
v 0.9 1.4 -1.5
v 0.1 1.3 -1.7
v 0.1 1.4 -1.7
v 0.2 1.4 -1.7
v 0.3 1.2 -1.7
v 0.3 1.3 -1.7
v 0.3 1.4 -1.7
v 0.5 1.2 -1.7
v 0.5 1.3 -1.7
v 5.96046e-08 1.2 -2
v 5.96046e-08 1.4 -2
v 0.2 1 -2
v 0.2 1.2 -2
v 0.2 1.4 -2
v 0.2 1.6 -2
v 0.5 1 -2
v 0.5 1.2 -2
v 0.5 1.4 -2
v 0.5 1.6 -2
v 0.7 1.2 -2
v 0.7 1.4 -2
v 0.2 1 -0.8
v 0.5 1 -0.8
v 0.2 1 -1.9
v 0.5 1 -1.9
v 0.2 1 -2
v 0.5 1 -2
v 5.96046e-08 1.2 -0.8
v 0.2 1.2 -0.8
v 0.5 1.2 -0.8
v 0.7 1.2 -0.8
v -0.2 1.2 -1.3
v 5.96046e-08 1.2 -1.3
v 0.5 1.2 -1.3
v 0.6 1.2 -1.3
v 0.7 1.2 -1.3
v 0.9 1.2 -1.3
v 0.5 1.2 -1.4
v 0.6 1.2 -1.4
v -0.2 1.2 -1.5
v 5.96046e-08 1.2 -1.5
v 0.5 1.2 -1.5
v 0.6 1.2 -1.5
v 0.7 1.2 -1.5
v 0.9 1.2 -1.5
v 0.5 1.2 -1.8
v 0.6 1.2 -1.8
v 5.96046e-08 1.2 -1.9
v 0.2 1.2 -1.9
v 0.5 1.2 -1.9
v 0.7 1.2 -1.9
v 5.96046e-08 1.2 -2
v 0.2 1.2 -2
v 0.5 1.2 -2
v 0.7 1.2 -2
v 0.4 1.3 -0.8
v 0.5 1.3 -0.8
v 0.4 1.3 -0.9
v 0.5 1.3 -0.9
v 0.5 1.3 -1.3
v 0.6 1.3 -1.3
v 0.5 1.3 -1.4
v 0.6 1.3 -1.4
v 0.5 1.3 -1.5
v 0.6 1.3 -1.5
v 0.5 1.3 -1.7
v 0.5 1.3 -1.8
v 0.6 1.3 -1.8
v 0.3 1.4 -1
v 0.4 1.4 -1
v 0.3 1.4 -1.1
v 0.4 1.4 -1.1
v 0.3 1.4 -1.4
v 0.5 1.4 -1.4
v 0.3 1.4 -1.5
v 0.4 1.4 -1.5
v 0.2 1.4 -1.7
v 0.3 1.4 -1.7
v 0.4 1.4 -1.7
v 0.2 1.4 -1.8
v 0.5 1.4 -1.8
v 0.3 1.5 -1.1
v 0.4 1.5 -1.1
v 0.3 1.5 -1.3
v 0.4 1.5 -1.3
v 0.3 1.5 -1.5
v 0.4 1.5 -1.5
v 0.3 1.5 -1.7
v 0.4 1.5 -1.7
v 0.4 1.2 -0.8
v 0.5 1.2 -0.8
v 0.4 1.2 -0.9
v 0.5 1.2 -0.9
v 0.3 1.2 -1.4
v 0.4 1.2 -1.4
v 0.4 1.2 -1.5
v 0.3 1.2 -1.6
v 0.4 1.2 -1.6
v 0.3 1.2 -1.7
v 0.5 1.2 -1.7
v 0.3 1.2 -1.8
v 0.5 1.2 -1.8
v 0.3 1.3 -1
v 0.4 1.3 -1
v 0.3 1.3 -1.1
v 0.4 1.3 -1.1
v 0.4 1.3 -1.4
v 0.5 1.3 -1.4
v 0.4 1.3 -1.5
v 0.5 1.3 -1.5
v 0.3 1.3 -1.6
v 0.4 1.3 -1.6
v 0.1 1.3 -1.7
v 0.3 1.3 -1.7
v 0.5 1.3 -1.7
v 0.1 1.3 -1.8
v 0.3 1.3 -1.8
v 5.96046e-08 1.4 -0.8
v 0.2 1.4 -0.8
v 0.5 1.4 -0.8
v 0.7 1.4 -0.8
v 0.3 1.4 -1.1
v 0.4 1.4 -1.1
v 0.3 1.4 -1.2
v 0.4 1.4 -1.2
v -0.2 1.4 -1.3
v 5.96046e-08 1.4 -1.3
v 0.3 1.4 -1.3
v 0.4 1.4 -1.3
v 0.7 1.4 -1.3
v 0.9 1.4 -1.3
v -0.2 1.4 -1.5
v 5.96046e-08 1.4 -1.5
v 0.7 1.4 -1.5
v 0.9 1.4 -1.5
v 0.1 1.4 -1.7
v 0.2 1.4 -1.7
v 0.1 1.4 -1.8
v 0.2 1.4 -1.8
v 5.96046e-08 1.4 -1.9
v 0.2 1.4 -1.9
v 0.5 1.4 -1.9
v 0.7 1.4 -1.9
v 5.96046e-08 1.4 -2
v 0.2 1.4 -2
v 0.5 1.4 -2
v 0.7 1.4 -2
v 0.2 1.6 -0.8
v 0.5 1.6 -0.8
v 0.2 1.6 -1.9
v 0.5 1.6 -1.9
v 0.2 1.6 -2
v 0.5 1.6 -2

# faces
f 3/4/1 2/4/1 1/4/1
f 4/4/1 2/4/1 3/4/1
f 10/4/1 6/4/1 5/4/1
f 11/4/1 6/4/1 10/4/1
f 12/4/1 8/4/1 7/4/1
f 13/3/1 9/3/1 8/3/1
f 13/4/1 8/4/1 12/4/1
f 14/3/1 9/3/1 13/3/1
f 18/4/1 16/4/1 15/4/1
f 19/3/1 17/3/1 16/3/1
f 19/4/1 16/4/1 18/4/1
f 20/3/1 17/3/1 19/3/1
f 26/4/1 22/4/1 21/4/1
f 26/4/1 23/4/1 22/4/1
f 26/4/1 24/4/1 23/4/1
f 27/3/1 25/3/1 24/3/1
f 27/4/1 24/4/1 26/4/1
f 28/3/1 25/3/1 27/3/1
f 34/1/1 30/1/1 29/1/1
f 35/4/1 31/4/1 30/4/1
f 35/1/1 30/1/1 34/1/1
f 36/4/1 31/4/1 35/4/1
f 37/1/1 33/1/1 32/1/1
f 38/1/1 33/1/1 37/1/1
f 43/4/1 40/4/1 39/4/1
f 43/4/1 39/4/1 38/4/1
f 44/4/1 40/4/1 43/4/1
f 45/4/1 42/4/1 41/4/1
f 46/4/1 42/4/1 45/4/1
f 49/4/1 48/4/1 47/4/1
f 50/4/1 48/4/1 49/4/1
f 55/4/1 54/4/1 53/4/1
f 55/4/1 53/4/1 52/4/1
f 55/4/1 52/4/1 51/4/1
f 56/4/1 54/4/1 55/4/1
f 61/4/1 58/4/1 57/4/1
f 62/4/1 58/4/1 61/4/1
f 63/4/1 60/4/1 59/4/1
f 64/4/1 60/4/1 63/4/1
f 65/4/2 66/4/2 67/4/2
f 67/4/2 66/4/2 68/4/2
f 69/2/2 70/2/2 75/2/2
f 75/2/2 70/2/2 76/2/2
f 76/2/2 70/2/2 77/2/2
f 71/4/2 72/4/2 78/4/2
f 78/4/2 72/4/2 79/4/2
f 73/2/2 74/2/2 80/2/2
f 80/2/2 74/2/2 81/2/2
f 75/1/2 76/1/2 84/1/2
f 76/4/2 77/4/2 85/4/2
f 84/1/2 76/1/2 85/1/2
f 77/4/2 78/4/2 85/4/2
f 85/4/2 78/4/2 86/4/2
f 82/4/2 83/4/2 87/4/2
f 81/4/2 82/4/2 87/4/2
f 87/4/2 83/4/2 88/4/2
f 85/4/2 86/4/2 89/4/2
f 89/4/2 86/4/2 90/4/2
f 91/4/2 92/4/2 93/4/2
f 93/4/2 92/4/2 94/4/2
f 95/4/2 96/4/2 98/4/2
f 98/4/2 96/4/2 99/4/2
f 99/4/2 96/4/2 100/4/2
f 100/4/2 96/4/2 101/4/2
f 101/4/2 96/4/2 102/4/2
f 102/4/2 96/4/2 103/4/2
f 96/3/2 97/3/2 104/3/2
f 103/4/2 96/4/2 104/4/2
f 104/3/2 97/3/2 105/3/2
f 99/4/2 100/4/2 106/4/2
f 106/4/2 100/4/2 107/4/2
f 101/4/2 102/4/2 108/4/2
f 108/4/2 102/4/2 109/4/2
f 110/4/2 111/4/2 113/4/2
f 111/3/2 112/3/2 114/3/2
f 113/4/2 111/4/2 114/4/2
f 114/3/2 112/3/2 115/3/2
f 116/4/2 117/4/2 121/4/2
f 121/4/2 117/4/2 122/4/2
f 118/4/2 119/4/2 123/4/2
f 119/3/2 120/3/2 124/3/2
f 123/4/2 119/4/2 124/4/2
f 124/3/2 120/3/2 125/3/2
f 126/4/2 127/4/2 128/4/2
f 128/4/2 127/4/2 129/4/2
f 133/4/3 131/4/3 130/4/3
f 134/4/3 131/4/3 133/4/3
f 136/4/3 133/4/3 132/4/3
f 136/4/3 135/4/3 134/4/3
f 136/4/3 134/4/3 133/4/3
f 137/4/3 135/4/3 136/4/3
f 138/4/3 136/4/3 132/4/3
f 139/4/3 136/4/3 138/4/3
f 140/4/3 135/4/3 137/4/3
f 141/4/3 135/4/3 140/4/3
f 142/4/3 135/4/3 141/4/3
f 143/4/3 140/4/3 139/4/3
f 143/4/3 141/4/3 140/4/3
f 144/4/3 141/4/3 143/4/3
f 147/4/3 146/4/3 145/4/3
f 148/4/3 146/4/3 147/4/3
f 151/2/3 150/2/3 149/2/3
f 152/2/3 150/2/3 151/2/3
f 155/4/3 154/4/3 153/4/3
f 156/4/3 154/4/3 155/4/3
f 159/4/3 158/4/3 157/4/3
f 160/4/3 158/4/3 159/4/3
f 163/4/3 162/4/3 161/4/3
f 164/4/3 162/4/3 163/4/3
f 167/4/3 166/4/3 165/4/3
f 168/4/3 166/4/3 167/4/3
f 171/4/3 170/4/3 169/4/3
f 172/4/3 170/4/3 171/4/3
f 175/4/3 174/4/3 173/4/3
f 176/4/3 174/4/3 175/4/3
f 179/4/3 178/4/3 177/4/3
f 181/4/3 179/4/3 177/4/3
f 182/4/3 181/4/3 180/4/3
f 183/4/3 179/4/3 181/4/3
f 183/4/3 181/4/3 182/4/3
f 184/4/3 179/4/3 183/4/3
f 185/4/3 183/4/3 182/4/3
f 186/4/3 183/4/3 185/4/3
f 187/2/4 188/2/4 189/2/4
f 189/2/4 188/2/4 190/2/4
f 191/4/4 192/4/4 193/4/4
f 193/4/4 192/4/4 194/4/4
f 195/4/4 196/4/4 197/4/4
f 197/4/4 196/4/4 198/4/4
f 199/2/4 200/2/4 202/2/4
f 200/1/4 201/1/4 203/1/4
f 202/2/4 200/2/4 203/2/4
f 203/1/4 201/1/4 204/1/4
f 204/1/4 201/1/4 205/1/4
f 206/4/4 207/4/4 208/4/4
f 208/4/4 207/4/4 209/4/4
f 210/4/4 211/4/4 212/4/4
f 212/4/4 211/4/4 213/4/4
f 214/4/4 215/4/4 216/4/4
f 216/4/4 215/4/4 217/4/4
f 218/4/4 219/4/4 220/4/4
f 220/4/4 219/4/4 221/4/4
f 222/4/4 223/4/4 224/4/4
f 222/4/4 224/4/4 226/4/4
f 226/4/4 224/4/4 227/4/4
f 225/4/4 226/4/4 228/4/4
f 228/4/4 226/4/4 229/4/4
f 230/3/4 231/3/4 233/3/4
f 233/3/4 231/3/4 234/3/4
f 232/3/4 233/3/4 236/3/4
f 234/3/4 235/3/4 236/3/4
f 233/3/4 234/3/4 236/3/4
f 236/3/4 235/3/4 237/3/4
f 237/3/4 235/3/4 238/3/4
f 238/3/4 235/3/4 239/3/4
f 237/3/4 238/3/4 240/3/4
f 240/3/4 238/3/4 241/3/4
f 244/4/5 243/4/5 242/4/5
f 245/4/5 243/4/5 244/4/5
f 246/3/5 245/3/5 244/3/5
f 247/3/5 245/3/5 246/3/5
f 253/4/5 249/4/5 248/4/5
f 254/4/5 251/4/5 250/4/5
f 255/4/5 251/4/5 254/4/5
f 256/4/5 251/4/5 255/4/5
f 259/4/5 257/4/5 256/4/5
f 259/4/5 256/4/5 255/4/5
f 260/4/5 253/4/5 252/4/5
f 261/4/5 249/4/5 253/4/5
f 261/4/5 253/4/5 260/4/5
f 262/4/5 259/4/5 258/4/5
f 263/4/5 257/4/5 259/4/5
f 263/4/5 259/4/5 262/4/5
f 264/4/5 257/4/5 263/4/5
f 265/4/5 257/4/5 264/4/5
f 267/4/5 264/4/5 263/4/5
f 268/4/5 249/4/5 261/4/5
f 269/4/5 249/4/5 268/4/5
f 270/4/5 267/4/5 266/4/5
f 271/4/5 264/4/5 267/4/5
f 271/4/5 267/4/5 270/4/5
f 272/3/5 269/3/5 268/3/5
f 273/3/5 269/3/5 272/3/5
f 274/3/5 271/3/5 270/3/5
f 275/3/5 271/3/5 274/3/5
f 278/4/5 277/4/5 276/4/5
f 279/4/5 277/4/5 278/4/5
f 282/4/5 281/4/5 280/4/5
f 283/4/5 281/4/5 282/4/5
f 286/4/5 285/4/5 284/4/5
f 287/4/5 285/4/5 286/4/5
f 288/4/5 285/4/5 287/4/5
f 291/4/5 290/4/5 289/4/5
f 292/4/5 290/4/5 291/4/5
f 295/4/5 294/4/5 293/4/5
f 296/4/5 294/4/5 295/4/5
f 299/4/5 294/4/5 296/4/5
f 300/4/5 298/4/5 297/4/5
f 300/4/5 299/4/5 298/4/5
f 301/4/5 294/4/5 299/4/5
f 301/4/5 299/4/5 300/4/5
f 304/4/5 303/4/5 302/4/5
f 305/4/5 303/4/5 304/4/5
f 308/4/5 307/4/5 306/4/5
f 309/4/5 307/4/5 308/4/5
f 310/4/6 311/4/6 312/4/6
f 312/4/6 311/4/6 313/4/6
f 314/2/6 315/2/6 316/2/6
f 314/2/6 316/2/6 317/2/6
f 317/2/6 316/2/6 318/2/6
f 319/4/6 320/4/6 321/4/6
f 321/4/6 320/4/6 322/4/6
f 323/2/6 324/2/6 325/2/6
f 325/2/6 324/2/6 326/2/6
f 327/1/6 328/1/6 329/1/6
f 329/1/6 328/1/6 330/1/6
f 329/4/6 330/4/6 332/4/6
f 331/4/6 332/4/6 334/4/6
f 332/4/6 330/4/6 335/4/6
f 334/4/6 332/4/6 335/4/6
f 333/4/6 334/4/6 336/4/6
f 336/4/6 334/4/6 337/4/6
f 342/2/6 343/2/6 344/2/6
f 344/2/6 343/2/6 345/2/6
f 338/4/6 339/4/6 347/4/6
f 344/1/6 345/1/6 348/1/6
f 348/1/6 345/1/6 349/1/6
f 340/4/6 341/4/6 350/4/6
f 346/4/6 347/4/6 352/4/6
f 347/4/6 339/4/6 353/4/6
f 352/4/6 347/4/6 353/4/6
f 350/4/6 351/4/6 354/4/6
f 340/4/6 350/4/6 354/4/6
f 354/4/6 351/4/6 355/4/6
f 353/4/6 339/4/6 356/4/6
f 356/4/6 339/4/6 357/4/6
f 353/4/6 356/4/6 358/4/6
f 353/4/6 358/4/6 360/4/6
f 358/4/6 359/4/6 360/4/6
f 360/4/6 359/4/6 361/4/6
f 340/4/6 354/4/6 362/4/6
f 362/4/6 354/4/6 363/4/6
f 360/3/6 361/3/6 364/3/6
f 364/3/6 361/3/6 365/3/6
f 362/3/6 363/3/6 366/3/6
f 366/3/6 363/3/6 367/3/6
f 368/4/6 369/4/6 370/4/6
f 370/4/6 369/4/6 371/4/6
f 370/3/6 371/3/6 372/3/6
f 372/3/6 371/3/6 373/3/6
